<?xml version="1.0" standalone="no"?>
<!DOCTYPE svg PUBLIC "-//W3C//DTD SVG 20010904//EN"
 "http://www.w3.org/TR/2001/REC-SVG-20010904/DTD/svg10.dtd">
<svg version="1.0" xmlns="http://www.w3.org/2000/svg"
 width="744.000000pt" height="744.000000pt" viewBox="0 0 744.000000 744.000000"
 preserveAspectRatio="xMidYMid meet">
<metadata>
Created by potrace 1.11, written by Peter Selinger 2001-2013
</metadata>
<g transform="translate(0.000000,744.000000) scale(0.100000,-0.100000)"
fill="#000000" stroke="none">
<path d="M5039 7429 c-38 -9 -78 -17 -119 -25 -14 -2 -36 -7 -50 -10 -14 -3
-36 -8 -50 -10 -28 -6 -231 -52 -390 -89 -135 -32 -389 -91 -505 -116 -112
-25 -106 -24 -130 -32 -11 -3 -31 -8 -45 -11 -14 -2 -92 -18 -175 -36 -82 -17
-161 -34 -175 -36 -14 -3 -36 -7 -50 -10 -30 -6 -51 -10 -105 -19 -22 -3 -47
-8 -55 -10 -8 -3 -32 -7 -54 -11 -21 -3 -48 -7 -59 -10 -12 -2 -39 -6 -62 -9
-22 -3 -51 -8 -65 -10 -14 -3 -38 -7 -55 -9 -16 -2 -49 -7 -72 -11 l-43 -7 0
-1414 c0 -893 -4 -1414 -10 -1414 -5 0 -31 13 -57 28 -225 131 -425 177 -558
128 -84 -31 -105 -41 -105 -49 0 -5 -3 -6 -7 -4 -5 3 -30 -8 -58 -24 -27 -17
-62 -35 -77 -42 -16 -6 -28 -15 -28 -19 0 -4 -9 -8 -19 -8 -11 0 -23 -6 -28
-12 -4 -7 -10 572 -13 1287 l-5 1300 -30 1 c-28 2 -246 -28 -305 -41 -14 -3
-37 -7 -52 -10 -16 -3 -43 -8 -60 -11 -18 -3 -42 -8 -53 -10 -11 -1 -29 -5
-40 -7 -50 -11 -206 -34 -242 -36 -10 -1 -13 -584 -13 -2880 l0 -2879 27 -6
c16 -4 37 -8 48 -10 11 -2 81 -16 155 -31 74 -15 146 -29 160 -31 14 -3 32 -7
41 -10 9 -2 33 -7 54 -9 20 -3 42 -8 47 -11 5 -3 22 -7 36 -9 15 -1 97 -17
182 -35 85 -18 164 -34 175 -35 11 -2 20 -4 20 -5 0 -1 9 -3 20 -5 28 -4 223
-45 265 -55 19 -5 51 -12 70 -15 19 -3 51 -10 70 -15 38 -9 179 -39 220 -46
14 -2 44 -9 68 -14 23 -6 61 -14 85 -20 49 -12 91 -20 130 -26 16 -2 32 -6 37
-9 4 -3 25 -7 46 -11 22 -3 55 -9 74 -14 19 -5 46 -11 60 -14 31 -5 178 -36
205 -43 11 -2 49 -11 85 -18 36 -8 76 -17 90 -20 14 -3 45 -10 70 -15 25 -5
99 -21 165 -35 66 -15 127 -28 136 -30 8 -2 44 -10 80 -19 35 -9 75 -18 89
-20 14 -3 25 -5 25 -6 0 -1 7 -3 15 -5 20 -4 57 -13 105 -24 22 -6 61 -15 87
-20 26 -6 73 -17 105 -25 32 -8 69 -17 83 -20 26 -5 74 -15 170 -36 30 -7 64
-13 75 -14 11 -1 34 -5 50 -9 31 -6 84 -15 145 -23 19 -2 51 -6 70 -9 19 -3
59 -7 88 -10 l52 -5 -2 3717 c-2 2467 -6 3717 -13 3719 -5 1 -26 -2 -46 -7z"/>
<path d="M5345 7002 c-16 -2 -34 -7 -40 -12 -6 -5 -9 -121 -7 -319 l3 -311 47
0 c26 0 58 -1 72 -3 14 -2 36 0 50 3 14 4 36 4 50 0 14 -4 37 -3 53 1 15 4 27
4 27 -1 0 -5 12 -5 28 -1 15 4 38 5 52 1 14 -4 36 -4 49 0 13 3 38 4 57 2 l34
-4 0 -2658 0 -2657 -55 0 c-31 0 -58 -3 -61 -6 -4 -3 -16 -2 -28 2 -11 5 -30
5 -41 1 -11 -4 -32 -4 -46 0 -15 4 -32 4 -39 0 -7 -5 -23 -5 -34 0 -12 4 -30
4 -41 0 -11 -4 -29 -4 -40 0 -11 4 -30 4 -42 -1 -13 -5 -25 -4 -28 1 -3 6 -15
6 -29 0 -13 -5 -27 -6 -30 -3 -4 4 -5 -128 -4 -293 l3 -299 30 -5 c17 -3 46
-3 65 0 19 3 52 3 72 0 21 -4 39 -3 40 1 2 4 23 4 48 0 25 -4 59 -4 76 -1 16
4 39 4 50 0 10 -4 29 -4 41 1 12 5 25 4 27 0 3 -5 20 -6 38 -2 18 4 52 4 75 1
23 -4 44 -3 45 1 2 4 23 4 48 0 25 -4 59 -4 75 -1 17 3 49 3 73 -1 23 -3 42
-2 42 3 0 5 9 7 20 3 10 -3 43 -6 72 -5 29 0 62 0 73 0 11 -1 27 -1 35 -1 8 1
27 1 43 2 l27 0 0 3280 0 3279 -42 1 c-24 0 -51 2 -60 4 -10 2 -18 -1 -18 -6
0 -6 -4 -8 -8 -5 -9 5 -41 7 -132 7 -30 -1 -83 0 -117 2 -35 1 -63 -2 -63 -6
0 -5 -4 -6 -8 -3 -9 5 -37 7 -132 7 -30 0 -66 1 -80 3 -14 1 -32 -1 -40 -5 -8
-3 -24 -3 -34 1 -11 3 -37 3 -58 0 -21 -4 -38 -5 -38 -1 0 7 -117 4 -136 -3
-6 -2 -27 -1 -45 2 -19 4 -47 6 -64 4z"/>
</g>
</svg>
