<!DOCTYPE svg PUBLIC "-//W3C//DTD SVG 20010904//EN" "http://www.w3.org/TR/2001/REC-SVG-20010904/DTD/svg10.dtd">
<svg version="1.0" xmlns="http://www.w3.org/2000/svg" width="244px" height="351px" viewBox="0 0 2440 3510" preserveAspectRatio="xMidYMid meet">
<g id="layer101" fill="#00b66b" stroke="none">
 <path d="M180 3420 c0 -5 -13 -10 -30 -10 -16 0 -30 -4 -30 -10 0 -5 -13 -10 -30 -10 -16 0 -30 -4 -30 -10 0 -5 -9 -10 -20 -10 -13 0 -20 -7 -20 -20 0 -11 -4 -20 -10 -20 -7 0 -10 -459 -10 -1356 0 -1161 2 -1357 14 -1370 17 -17 166 -20 166 -4 0 6 39 10 96 10 69 0 99 4 110 14 12 13 14 211 14 1386 l0 1371 -25 24 c-22 23 -32 25 -110 25 -50 0 -85 -4 -85 -10z"/>
 <path d="M1780 3420 c0 -6 -30 -10 -70 -10 -40 0 -70 -4 -70 -10 0 -6 -27 -10 -60 -10 -33 0 -60 -4 -60 -10 0 -6 -27 -10 -60 -10 -33 0 -60 -4 -60 -10 0 -6 -27 -10 -60 -10 -33 0 -60 -4 -60 -10 0 -6 -27 -10 -60 -10 -33 0 -60 -4 -60 -10 0 -6 -30 -10 -69 -10 -46 0 -71 -4 -75 -12 -5 -10 -7 -10 -12 0 -4 7 -27 12 -65 12 -33 0 -59 4 -59 10 0 6 -22 10 -50 10 -27 0 -50 5 -50 10 0 6 -22 10 -50 10 -27 0 -50 5 -50 10 0 6 -43 10 -110 10 l-110 0 0 -1386 c0 -1529 -5 -1414 64 -1414 20 0 36 -4 36 -10 0 -5 23 -10 50 -10 28 0 50 -4 50 -10 0 -5 23 -10 50 -10 28 0 50 -4 50 -10 0 -5 23 -10 50 -10 28 0 50 -4 50 -10 0 -5 23 -10 50 -10 28 0 50 -4 50 -10 0 -5 18 -10 40 -10 22 0 40 -4 40 -10 0 -5 23 -10 50 -10 28 0 50 -4 50 -10 0 -5 23 -10 50 -10 28 0 50 -4 50 -10 0 -5 23 -10 50 -10 28 0 50 -4 50 -10 0 -5 23 -10 50 -10 28 0 50 -4 50 -10 0 -5 23 -10 50 -10 28 0 50 -4 50 -10 0 -5 23 -10 50 -10 28 0 50 -4 50 -10 0 -5 23 -10 50 -10 28 0 50 -4 50 -10 0 -5 23 -10 50 -10 28 0 50 -4 50 -10 0 -5 23 -10 50 -10 28 0 50 -4 50 -10 0 -5 18 -10 40 -10 22 0 40 -4 40 -10 0 -5 23 -10 50 -10 28 0 50 -4 50 -10 0 -5 23 -10 50 -10 28 0 50 -4 50 -10 0 -16 129 -12 146 4 21 22 21 2790 0 2812 -9 9 -35 14 -70 14 -31 0 -56 5 -56 10 0 6 -22 10 -50 10 -27 0 -50 5 -50 10 0 6 -22 10 -50 10 -27 0 -50 5 -50 10 0 6 -22 10 -50 10 -27 0 -50 5 -50 10 0 6 -7 10 -16 10 -38 0 -44 24 -44 164 l0 136 -50 0 c-27 0 -50 -4 -50 -10z m200 -1310 l0 -940 -40 0 c-22 0 -40 5 -40 10 0 6 -22 10 -50 10 -27 0 -50 5 -50 10 0 6 -27 10 -60 10 -33 0 -60 4 -60 10 0 6 -22 10 -50 10 -27 0 -50 5 -50 10 0 6 -22 10 -50 10 -27 0 -50 5 -50 10 0 6 -27 10 -60 10 -33 0 -60 4 -60 10 0 6 -22 10 -50 10 -27 0 -50 5 -50 10 0 6 -27 10 -60 10 -33 0 -60 4 -60 10 0 6 -21 10 -46 10 -40 0 -74 16 -74 34 0 3 32 6 70 6 40 0 70 4 70 10 0 6 27 10 60 10 33 0 60 4 60 10 0 6 27 10 60 10 33 0 60 4 60 10 0 6 30 10 70 10 40 0 70 4 70 10 0 6 27 10 60 10 33 0 60 4 60 10 0 6 27 10 60 10 33 0 60 4 60 10 0 6 23 10 50 10 l50 0 0 780 0 780 50 0 50 0 0 -940z"/>
 <path d="M120 540 c0 -5 -9 -10 -20 -10 -18 0 -20 -7 -20 -60 l0 -60 30 0 c17 0 30 -4 30 -10 0 -5 23 -10 50 -10 28 0 50 -4 50 -10 0 -5 18 -10 40 -10 22 0 40 -4 40 -10 0 -5 23 -10 50 -10 28 0 50 -4 50 -10 0 -5 23 -10 50 -10 28 0 50 -4 50 -10 0 -5 23 -10 50 -10 28 0 50 -4 50 -10 0 -5 18 -10 40 -10 22 0 40 -4 40 -10 0 -5 23 -10 50 -10 28 0 50 -4 50 -10 0 -5 23 -10 50 -10 28 0 50 -4 50 -10 0 -5 18 -10 40 -10 22 0 40 -4 40 -10 0 -5 23 -10 50 -10 28 0 50 -4 50 -10 0 -5 23 -10 50 -10 28 0 50 -4 50 -10 0 -5 23 -10 50 -10 28 0 50 -4 50 -10 0 -5 18 -10 40 -10 22 0 40 -4 40 -10 0 -5 23 -10 50 -10 28 0 50 -4 50 -10 0 -5 23 -10 50 -10 28 0 50 -4 50 -10 0 -5 23 -10 50 -10 28 0 50 -4 50 -10 0 -5 23 -10 50 -10 28 0 50 -4 50 -10 0 -16 149 -13 166 4 19 20 19 132 0 152 -8 8 -26 14 -40 14 -14 0 -26 5 -26 10 0 6 -18 10 -40 10 -22 0 -40 5 -40 10 0 6 -22 10 -50 10 -27 0 -50 5 -50 10 0 6 -22 10 -50 10 -27 0 -50 5 -50 10 0 6 -22 10 -50 10 -27 0 -50 5 -50 10 0 6 -18 10 -40 10 -22 0 -40 5 -40 10 0 6 -27 10 -60 10 -33 0 -60 4 -60 10 0 6 -18 10 -40 10 -22 0 -40 5 -40 10 0 6 -22 10 -50 10 -27 0 -50 5 -50 10 0 6 -22 10 -50 10 -27 0 -50 5 -50 10 0 6 -22 10 -50 10 -27 0 -50 5 -50 10 0 6 -18 10 -40 10 -22 0 -40 5 -40 10 0 6 -22 10 -50 10 -27 0 -50 5 -50 10 0 6 -22 10 -50 10 -27 0 -50 5 -50 10 0 6 -22 10 -50 10 -27 0 -50 5 -50 10 0 6 -22 10 -50 10 -27 0 -50 5 -50 10 0 6 -57 10 -150 10 -93 0 -150 -4 -150 -10z"/>
 </g>
<g id="layer102" fill="#64d0a5" stroke="none">
 <path d="M180 3420 c0 -5 -13 -10 -30 -10 -16 0 -30 -4 -30 -10 0 -5 -13 -10 -30 -10 -16 0 -30 -4 -30 -10 0 -5 -9 -10 -20 -10 -13 0 -20 -7 -20 -20 0 -11 -4 -20 -10 -20 -7 0 -10 -459 -10 -1356 0 -1161 2 -1357 14 -1370 17 -17 166 -20 166 -4 0 6 39 10 96 10 69 0 99 4 110 14 12 13 14 211 14 1386 l0 1371 -25 24 c-22 23 -32 25 -110 25 -50 0 -85 -4 -85 -10z m166 -28 c12 -9 27 -27 33 -39 8 -16 11 -391 11 -1347 l0 -1325 -23 -27 c-21 -24 -33 -28 -113 -35 -49 -4 -111 -11 -137 -15 -42 -6 -51 -4 -72 16 l-25 23 0 1329 c0 893 3 1336 10 1349 34 63 263 115 316 71z"/>
 <path d="M1780 3419 c0 -8 15 -9 45 -5 l45 7 0 -153 0 -154 226 -42 c223 -42 269 -57 277 -90 3 -9 5 -4 6 11 2 43 -20 57 -83 57 -31 0 -56 5 -56 10 0 6 -22 10 -50 10 -27 0 -50 5 -50 10 0 6 -22 10 -50 10 -27 0 -50 5 -50 10 0 6 -22 10 -50 10 -27 0 -50 5 -50 10 0 6 -7 10 -16 10 -38 0 -44 24 -44 164 l0 136 -50 0 c-30 0 -50 -4 -50 -11z"/>
 <path d="M1640 3400 c0 -6 -27 -10 -60 -10 -33 0 -60 -4 -60 -10 0 -6 -27 -10 -60 -10 -33 0 -60 -4 -60 -10 0 -6 -27 -10 -60 -10 -33 0 -60 -4 -60 -10 0 -6 -27 -10 -60 -10 -37 0 -60 -4 -60 -11 0 -13 12 -12 355 46 219 36 249 43 193 44 -40 1 -68 -3 -68 -9z"/>
 <path d="M460 1984 c0 -1529 -5 -1414 64 -1414 20 0 36 -4 36 -10 0 -5 23 -10 50 -10 28 0 50 -4 50 -10 0 -5 23 -10 50 -10 28 0 50 -4 50 -10 0 -5 23 -10 50 -10 28 0 50 -4 50 -10 0 -5 23 -10 50 -10 28 0 50 -4 50 -10 0 -5 18 -10 40 -10 22 0 40 -4 40 -10 0 -5 23 -10 50 -10 28 0 50 -4 50 -10 0 -5 23 -10 50 -10 28 0 50 -4 50 -10 0 -5 23 -10 50 -10 28 0 50 -4 50 -10 0 -5 23 -10 50 -10 28 0 50 -4 50 -10 0 -5 23 -10 50 -10 28 0 50 -4 50 -10 0 -5 23 -10 50 -10 28 0 50 -4 50 -10 0 -5 23 -10 50 -10 28 0 50 -4 50 -10 0 -5 23 -10 50 -10 28 0 50 -4 50 -10 0 -5 23 -10 50 -10 28 0 50 -4 50 -10 0 -5 18 -10 40 -10 22 0 40 -4 40 -10 0 -5 23 -10 50 -10 28 0 50 -4 50 -10 0 -5 23 -10 50 -10 28 0 50 -4 50 -10 0 -6 29 -10 66 -10 71 0 94 12 94 52 l0 22 -16 -22 c-27 -38 -53 -42 -150 -22 -49 11 -368 76 -709 145 -1056 215 -998 202 -1018 226 -16 20 -17 100 -17 1363 0 1419 -2 1359 45 1384 17 10 15 11 -17 12 l-38 0 0 -1386z"/>
 <path d="M775 3325 c226 -44 231 -44 305 -31 l75 14 -67 1 c-44 1 -68 -3 -72 -11 -5 -10 -7 -10 -12 0 -4 7 -27 12 -65 12 -33 0 -59 4 -59 10 0 6 -22 10 -50 10 -27 0 -50 5 -50 10 0 6 -22 10 -50 10 -27 0 -50 5 -50 10 0 6 -29 10 -67 9 -61 -1 -44 -5 162 -44z"/>
 <path d="M1870 2297 l0 -785 -22 -5 c-13 -3 -203 -34 -423 -69 -332 -52 -389 -64 -335 -66 39 -2 66 1 68 7 2 6 30 11 63 11 33 0 59 4 59 10 0 6 27 10 60 10 33 0 60 4 60 10 0 6 30 10 70 10 40 0 70 4 70 10 0 6 27 10 60 10 33 0 60 4 60 10 0 6 27 10 60 10 33 0 60 4 60 10 0 6 23 10 50 10 l50 0 0 780 0 780 50 0 50 0 0 -940 0 -940 -40 0 c-22 0 -40 5 -40 10 0 6 -22 10 -50 10 -27 0 -50 5 -50 10 0 6 -27 10 -60 10 -33 0 -60 4 -60 10 0 6 -22 10 -50 10 -27 0 -50 5 -50 10 0 6 -22 10 -50 10 -27 0 -50 5 -50 10 0 6 -27 10 -60 10 -33 0 -60 4 -60 10 0 6 -22 10 -50 10 -27 0 -50 5 -50 10 0 6 -27 10 -60 10 -33 0 -60 4 -60 10 0 6 -21 10 -46 10 -35 0 -51 5 -65 21 -16 18 -24 20 -71 14 -41 -6 -49 -10 -33 -16 21 -9 1032 -199 1056 -199 12 0 14 153 11 954 l-2 954 -43 7 c-23 3 -50 9 -59 11 -17 5 -18 -37 -18 -779z"/>
 <path d="M1645 2548 c-47 -9 -75 -23 -75 -37 0 -4 6 -15 13 -25 11 -16 20 -16 82 -6 107 17 112 19 119 36 16 41 -33 52 -139 32z"/>
 <path d="M120 540 c0 -5 -9 -10 -20 -10 -15 0 -20 -7 -20 -27 0 -27 0 -27 15 -6 19 27 85 43 178 43 93 0 1601 -311 1628 -336 39 -35 31 -99 -16 -130 -30 -20 10 -26 -605 102 -903 189 -1165 247 -1182 262 -17 14 -18 13 -18 -6 0 -18 6 -22 30 -22 17 0 30 -4 30 -10 0 -5 23 -10 50 -10 28 0 50 -4 50 -10 0 -5 18 -10 40 -10 22 0 40 -4 40 -10 0 -5 23 -10 50 -10 28 0 50 -4 50 -10 0 -5 23 -10 50 -10 28 0 50 -4 50 -10 0 -5 23 -10 50 -10 28 0 50 -4 50 -10 0 -5 18 -10 40 -10 22 0 40 -4 40 -10 0 -5 23 -10 50 -10 28 0 50 -4 50 -10 0 -5 23 -10 50 -10 28 0 50 -4 50 -10 0 -5 18 -10 40 -10 22 0 40 -4 40 -10 0 -5 23 -10 50 -10 28 0 50 -4 50 -10 0 -5 23 -10 50 -10 28 0 50 -4 50 -10 0 -5 23 -10 50 -10 28 0 50 -4 50 -10 0 -5 18 -10 40 -10 22 0 40 -4 40 -10 0 -5 23 -10 50 -10 28 0 50 -4 50 -10 0 -5 23 -10 50 -10 28 0 50 -4 50 -10 0 -5 23 -10 50 -10 28 0 50 -4 50 -10 0 -5 23 -10 50 -10 28 0 50 -4 50 -10 0 -16 149 -13 166 4 19 20 19 132 0 152 -8 8 -26 14 -40 14 -14 0 -26 5 -26 10 0 6 -18 10 -40 10 -22 0 -40 5 -40 10 0 6 -22 10 -50 10 -27 0 -50 5 -50 10 0 6 -22 10 -50 10 -27 0 -50 5 -50 10 0 6 -22 10 -50 10 -27 0 -50 5 -50 10 0 6 -18 10 -40 10 -22 0 -40 5 -40 10 0 6 -27 10 -60 10 -33 0 -60 4 -60 10 0 6 -18 10 -40 10 -22 0 -40 5 -40 10 0 6 -22 10 -50 10 -27 0 -50 5 -50 10 0 6 -22 10 -50 10 -27 0 -50 5 -50 10 0 6 -22 10 -50 10 -27 0 -50 5 -50 10 0 6 -18 10 -40 10 -22 0 -40 5 -40 10 0 6 -22 10 -50 10 -27 0 -50 5 -50 10 0 6 -22 10 -50 10 -27 0 -50 5 -50 10 0 6 -22 10 -50 10 -27 0 -50 5 -50 10 0 6 -22 10 -50 10 -27 0 -50 5 -50 10 0 6 -57 10 -150 10 -93 0 -150 -4 -150 -10z"/>
 </g>
<g id="layer103" fill="#a7e0c4" stroke="none">
 <path d="M180 3420 c0 -5 -13 -10 -30 -10 -16 0 -30 -4 -30 -10 0 -5 -13 -10 -30 -10 -16 0 -30 -4 -30 -10 0 -5 -9 -10 -20 -10 -13 0 -20 -7 -20 -20 0 -11 -4 -20 -10 -20 -7 0 -10 -459 -10 -1356 0 -1161 2 -1357 14 -1370 17 -16 166 -20 166 -4 0 6 -23 7 -59 4 -50 -6 -61 -4 -79 14 -11 11 -23 40 -27 64 -3 24 -5 621 -3 1328 2 1049 5 1289 16 1308 32 56 235 114 301 86 65 -27 61 61 61 -1393 0 -964 -3 -1327 -11 -1345 -15 -33 -30 -39 -119 -46 l-75 -7 93 -1 c69 -2 97 2 108 12 12 13 14 211 14 1386 l0 1371 -25 24 c-22 23 -32 25 -110 25 -50 0 -85 -4 -85 -10z"/>
 <path d="M1780 3419 c0 -7 16 -8 45 -4 l44 7 3 -153 3 -153 165 -32 c184 -36 200 -38 200 -24 0 6 -22 10 -50 10 -27 0 -50 5 -50 10 0 6 -22 10 -50 10 -27 0 -50 5 -50 10 0 6 -22 10 -50 10 -27 0 -50 5 -50 10 0 6 -7 10 -16 10 -38 0 -44 24 -44 164 l0 136 -50 0 c-29 0 -50 -5 -50 -11z"/>
 <path d="M1640 3400 c0 -6 -27 -10 -60 -10 -33 0 -60 -4 -60 -10 0 -13 16 -12 140 9 l105 19 -62 1 c-36 0 -63 -3 -63 -9z"/>
 <path d="M460 1984 c0 -1529 -5 -1414 64 -1414 20 0 36 -4 36 -10 0 -5 23 -10 50 -10 28 0 50 -4 50 -10 0 -5 23 -10 50 -10 28 0 50 -4 50 -10 0 -5 23 -10 50 -10 28 0 50 -4 50 -10 0 -5 23 -10 50 -10 28 0 50 -4 50 -10 0 -5 18 -10 40 -10 22 0 40 -4 40 -10 0 -5 23 -10 50 -10 28 0 50 -4 50 -10 0 -5 23 -10 50 -10 28 0 50 -4 50 -10 0 -5 23 -10 50 -10 28 0 50 -4 50 -10 0 -5 23 -10 50 -10 28 0 50 -4 50 -10 0 -5 23 -10 50 -10 28 0 50 -4 50 -10 0 -5 23 -10 50 -10 28 0 50 -4 50 -10 0 -5 23 -10 50 -10 28 0 50 -4 50 -10 0 -5 23 -10 50 -10 28 0 50 -4 50 -10 0 -5 23 -10 50 -10 28 0 50 -4 50 -10 0 -5 18 -10 40 -10 22 0 40 -4 40 -10 0 -5 23 -10 50 -10 28 0 50 -4 50 -10 0 -5 23 -10 50 -10 28 0 50 -4 50 -10 0 -6 29 -10 66 -10 70 0 94 12 94 49 0 17 -3 16 -30 -10 -26 -26 -34 -29 -67 -23 -21 3 -387 78 -813 164 -426 87 -815 166 -865 176 -64 13 -96 24 -112 40 l-23 23 0 1341 c0 930 3 1347 11 1361 6 11 20 24 32 29 19 7 16 9 -15 9 l-38 1 0 -1386z"/>
 <path d="M575 3365 c6 -2 104 -22 220 -43 201 -38 213 -39 280 -27 l70 13 -62 1 c-40 1 -63 -3 -67 -11 -5 -10 -7 -10 -12 0 -4 7 -27 12 -65 12 -33 0 -59 4 -59 10 0 6 -22 10 -50 10 -27 0 -50 5 -50 10 0 6 -22 10 -50 10 -27 0 -50 5 -50 10 0 6 -25 10 -57 9 -32 0 -53 -2 -48 -4z"/>
 <path d="M1400 3360 c0 -12 20 -12 75 -1 40 9 39 9 -17 10 -33 0 -58 -3 -58 -9z"/>
 <path d="M1280 3340 c0 -12 20 -12 75 -1 40 9 39 9 -17 10 -33 0 -58 -3 -58 -9z"/>
 <path d="M1160 3320 c0 -7 19 -8 53 -4 70 9 72 14 4 14 -33 0 -57 -4 -57 -10z"/>
 <path d="M1868 2294 l-3 -789 -40 -6 -40 -6 48 -2 47 -1 0 780 0 780 50 0 50 0 0 -940 0 -940 -40 0 c-22 0 -40 5 -40 10 0 6 -22 10 -50 10 -27 0 -50 5 -50 10 0 6 -27 10 -60 10 -33 0 -60 4 -60 10 0 6 -22 10 -50 10 -27 0 -50 5 -50 10 0 6 -22 10 -50 10 -27 0 -50 5 -50 10 0 6 -27 10 -60 10 -33 0 -60 4 -60 10 0 6 -22 10 -49 10 -27 0 -51 5 -53 11 -2 6 -26 9 -58 7 -44 -2 23 -17 340 -76 217 -41 407 -76 423 -79 l27 -5 0 955 0 955 -46 7 c-26 3 -53 9 -60 12 -12 4 -14 -122 -16 -783z"/>
 <path d="M2283 3039 c53 -12 77 -27 87 -52 8 -21 9 -20 9 6 1 43 -20 57 -81 56 l-53 -1 38 -9z"/>
 <path d="M1647 2546 c-66 -12 -87 -34 -61 -61 9 -8 24 -14 33 -11 9 2 39 7 66 11 76 10 93 15 99 32 16 41 -29 51 -137 29z"/>
 <path d="M1700 1480 c-31 -7 -29 -8 23 -9 32 0 57 3 57 9 0 11 -27 11 -80 0z"/>
 <path d="M1505 1450 l-100 -17 68 -2 c39 0 67 3 67 9 0 6 27 10 60 10 33 0 60 4 60 10 0 13 -35 11 -155 -10z"/>
 <path d="M1320 1420 c-31 -7 -29 -8 23 -9 32 0 57 3 57 9 0 11 -27 11 -80 0z"/>
 <path d="M1125 1390 l-100 -18 68 -1 c39 -1 67 3 67 9 0 6 27 10 60 10 33 0 60 4 60 10 0 13 -35 11 -155 -10z"/>
 <path d="M940 1361 c-28 -6 -31 -8 -15 -13 34 -11 115 -21 115 -13 0 3 -6 13 -14 21 -15 15 -29 16 -86 5z"/>
 <path d="M1075 1320 c44 -11 65 -11 65 0 0 6 -21 9 -47 9 -43 -1 -45 -2 -18 -9z"/>
 <path d="M120 540 c0 -5 -9 -10 -20 -10 -15 0 -20 -7 -20 -25 l0 -24 24 24 c15 15 40 26 72 30 80 10 82 13 12 14 -40 1 -68 -3 -68 -9z"/>
 <path d="M311 546 c11 -10 109 -16 109 -6 0 6 -24 10 -57 10 -31 0 -54 -2 -52 -4z"/>
 <path d="M435 525 c14 -6 445 -95 456 -95 5 0 9 5 9 10 0 6 -18 10 -40 10 -22 0 -40 5 -40 10 0 6 -22 10 -50 10 -27 0 -50 5 -50 10 0 6 -22 10 -50 10 -27 0 -50 5 -50 10 0 6 -22 10 -50 10 -27 0 -50 5 -50 10 0 6 -21 10 -47 9 -27 0 -43 -2 -38 -4z"/>
 <path d="M80 433 c0 -19 6 -23 30 -23 17 0 30 -4 30 -10 0 -5 23 -10 50 -10 28 0 50 -4 50 -10 0 -5 18 -10 40 -10 22 0 40 -4 40 -10 0 -5 23 -10 50 -10 28 0 50 -4 50 -10 0 -5 22 -10 49 -10 27 0 51 -5 53 -11 2 -6 22 -9 48 -7 35 2 -7 14 -190 52 -252 53 -280 61 -292 79 -5 8 -8 3 -8 -10z"/>
 <path d="M915 424 c12 -4 346 -74 357 -74 5 0 8 5 8 10 0 6 -18 10 -40 10 -22 0 -40 5 -40 10 0 6 -22 10 -50 10 -27 0 -50 5 -50 10 0 6 -22 10 -50 10 -27 0 -50 5 -50 10 0 6 -21 10 -47 9 -27 0 -43 -2 -38 -5z"/>
 <path d="M1305 343 c11 -3 146 -32 299 -64 298 -62 310 -67 322 -126 5 -27 1 -37 -24 -63 -17 -16 -40 -30 -51 -30 -19 0 -502 99 -1004 205 -233 50 -227 49 -227 35 0 -5 18 -10 40 -10 22 0 40 -4 40 -10 0 -5 23 -10 50 -10 28 0 50 -4 50 -10 0 -5 23 -10 50 -10 28 0 50 -4 50 -10 0 -5 18 -10 40 -10 22 0 40 -4 40 -10 0 -5 23 -10 50 -10 28 0 50 -4 50 -10 0 -5 23 -10 50 -10 28 0 50 -4 50 -10 0 -5 23 -10 50 -10 28 0 50 -4 50 -10 0 -5 18 -10 40 -10 22 0 40 -4 40 -10 0 -5 23 -10 50 -10 28 0 50 -4 50 -10 0 -5 23 -10 50 -10 28 0 50 -4 50 -10 0 -5 23 -10 50 -10 28 0 50 -4 50 -10 0 -5 23 -10 50 -10 28 0 50 -4 50 -10 0 -16 149 -13 166 4 19 20 19 132 0 152 -8 8 -26 14 -40 14 -14 0 -26 5 -26 10 0 6 -18 10 -40 10 -22 0 -40 5 -40 10 0 6 -22 10 -50 10 -27 0 -50 5 -50 10 0 6 -22 10 -50 10 -27 0 -50 5 -50 10 0 6 -22 10 -50 10 -27 0 -50 5 -50 10 0 6 -18 10 -40 10 -22 0 -40 5 -40 10 0 6 -25 9 -57 9 -32 -1 -49 -4 -38 -6z"/>
 </g>
<g id="layer104" fill="#f8fcfa" stroke="none">
 <path d="M180 3420 c0 -5 -13 -10 -30 -10 -16 0 -30 -4 -30 -10 0 -5 -13 -10 -30 -10 -16 0 -30 -4 -30 -10 0 -5 -9 -10 -20 -10 -13 0 -20 -7 -20 -20 0 -11 -4 -20 -10 -20 -7 0 -10 -459 -10 -1356 0 -1461 -3 -1384 50 -1384 20 0 19 2 -7 24 l-28 24 -3 1330 -2 1330 25 30 c29 34 96 65 179 82 76 16 118 7 150 -31 l26 -31 0 -1338 c0 -1548 13 -1381 -112 -1391 l-73 -6 83 -1 c61 -2 87 2 98 12 12 13 14 211 14 1386 l0 1371 -25 24 c-22 23 -32 25 -110 25 -50 0 -85 -4 -85 -10z"/>
 <path d="M1780 3421 c0 -5 20 -6 45 -3 l45 5 0 -151 c0 -147 0 -150 23 -156 32 -8 47 -7 47 4 0 6 -7 10 -16 10 -38 0 -44 24 -44 164 l0 136 -50 0 c-27 0 -50 -4 -50 -9z"/>
 <path d="M1640 3400 c0 -6 16 -8 43 -4 58 9 59 14 4 14 -26 0 -47 -5 -47 -10z"/>
 <path d="M1520 3380 c0 -6 16 -8 43 -4 58 9 59 14 4 14 -26 0 -47 -5 -47 -10z"/>
 <path d="M460 3338 c0 -32 0 -32 15 -11 9 13 23 27 33 32 14 9 11 10 -15 11 -31 0 -33 -2 -33 -32z"/>
 <path d="M615 3360 c44 -11 65 -11 65 0 0 6 -21 9 -47 9 -43 -1 -45 -2 -18 -9z"/>
 <path d="M1400 3360 c0 -6 16 -8 43 -4 58 9 59 14 4 14 -26 0 -47 -5 -47 -10z"/>
 <path d="M691 3346 c11 -10 89 -15 89 -6 0 5 -21 10 -47 10 -25 0 -44 -2 -42 -4z"/>
 <path d="M1280 3341 c0 -8 79 -3 89 5 2 2 -17 4 -42 4 -26 0 -47 -4 -47 -9z"/>
 <path d="M801 3326 c12 -10 79 -16 79 -6 0 5 -19 10 -42 10 -23 0 -39 -2 -37 -4z"/>
 <path d="M1160 3321 c0 -8 79 -3 89 5 2 2 -17 4 -42 4 -26 0 -47 -4 -47 -9z"/>
 <path d="M901 3306 c12 -10 99 -16 99 -7 0 7 -22 11 -52 11 -28 0 -49 -2 -47 -4z"/>
 <path d="M1020 3299 c0 -7 16 -8 48 -3 64 9 66 14 4 14 -30 0 -52 -4 -52 -11z"/>
 <path d="M1975 3100 c44 -11 65 -11 65 0 0 6 -21 9 -47 9 -43 -1 -45 -2 -18 -9z"/>
 <path d="M2051 3086 c11 -10 89 -15 89 -6 0 5 -21 10 -47 10 -25 0 -44 -2 -42 -4z"/>
 <path d="M1870 2286 l0 -785 -32 -4 c-32 -4 -32 -4 5 -5 l37 -2 0 780 0 780 48 1 c42 1 44 2 17 9 -16 4 -40 8 -52 9 l-23 1 0 -784z"/>
 <path d="M2161 3066 c12 -10 79 -16 79 -6 0 5 -19 10 -42 10 -23 0 -39 -2 -37 -4z"/>
 <path d="M1982 2113 l-2 -943 -32 -1 -33 -1 35 -8 c19 -5 36 -7 37 -6 2 2 2 430 0 952 l-2 949 -3 -942z"/>
 <path d="M2293 3040 c20 -4 49 -17 62 -30 22 -20 25 -21 25 -6 0 31 -26 46 -77 45 l-48 -1 38 -8z"/>
 <path d="M1668 2546 c-73 -12 -94 -25 -84 -51 5 -15 16 -16 71 -10 101 10 120 18 120 46 0 29 -14 31 -107 15z"/>
 <path d="M1720 1480 c-34 -7 -34 -7 13 -9 26 0 47 4 47 9 0 11 -8 11 -60 0z"/>
 <path d="M1590 1460 c-33 -7 -31 -7 18 -9 29 0 52 3 52 9 0 11 -17 11 -70 0z"/>
 <path d="M1460 1440 c-31 -7 -29 -8 23 -9 32 0 57 3 57 9 0 11 -27 11 -80 0z"/>
 <path d="M1340 1420 c-34 -7 -34 -7 13 -9 26 0 47 4 47 9 0 11 -8 11 -60 0z"/>
 <path d="M1215 1400 l-40 -7 53 -2 c29 0 52 3 52 9 0 11 -5 11 -65 0z"/>
 <path d="M1085 1380 c-38 -7 -38 -7 18 -9 32 0 57 3 57 9 0 11 -14 11 -75 0z"/>
 <path d="M955 1361 l-40 -6 59 -13 c33 -6 61 -10 64 -7 6 6 -24 35 -35 34 -4 -1 -26 -5 -48 -8z"/>
 <path d="M1061 1326 c10 -9 79 -14 79 -5 0 5 -19 9 -42 9 -23 0 -39 -2 -37 -4z"/>
 <path d="M1195 1300 c44 -11 65 -11 65 0 0 6 -21 9 -47 9 -43 -1 -45 -2 -18 -9z"/>
 <path d="M1281 1286 c12 -10 79 -16 79 -6 0 5 -19 10 -42 10 -23 0 -39 -2 -37 -4z"/>
 <path d="M1381 1266 c12 -10 99 -16 99 -7 0 7 -22 11 -52 11 -28 0 -49 -2 -47 -4z"/>
 <path d="M1515 1240 c44 -11 65 -11 65 0 0 6 -21 9 -47 9 -43 -1 -45 -2 -18 -9z"/>
 <path d="M1601 1226 c12 -10 79 -16 79 -6 0 5 -19 10 -42 10 -23 0 -39 -2 -37 -4z"/>
 <path d="M1701 1206 c12 -10 99 -16 99 -7 0 7 -22 11 -52 11 -28 0 -49 -2 -47 -4z"/>
 <path d="M1835 1180 c44 -11 65 -11 65 0 0 6 -21 9 -47 9 -43 -1 -45 -2 -18 -9z"/>
 <path d="M460 622 c0 -33 23 -52 62 -51 l33 1 -32 9 c-19 6 -39 21 -47 37 -15 26 -15 26 -16 4z"/>
 <path d="M140 600 c-24 -8 -23 -8 8 -9 17 -1 32 4 32 9 0 11 -5 11 -40 0z"/>
 <path d="M560 560 c0 -5 21 -10 47 -10 55 0 54 5 -4 14 -27 4 -43 2 -43 -4z"/>
 <path d="M120 540 c0 -5 -9 -10 -20 -10 -14 0 -20 -7 -20 -22 0 -20 1 -21 13 -4 7 10 38 24 68 31 l54 13 -47 1 c-27 1 -48 -3 -48 -9z"/>
 <path d="M341 546 c10 -9 79 -14 79 -5 0 5 -19 9 -42 9 -23 0 -39 -2 -37 -4z"/>
 <path d="M660 540 c0 -5 19 -10 42 -10 49 0 47 5 -4 14 -24 4 -38 3 -38 -4z"/>
 <path d="M470 520 c36 -11 50 -11 50 0 0 6 -17 10 -37 9 -34 -1 -35 -2 -13 -9z"/>
 <path d="M760 520 c0 -5 19 -10 42 -10 49 0 47 5 -4 14 -24 4 -38 3 -38 -4z"/>
 <path d="M541 506 c12 -10 79 -16 79 -6 0 5 -19 10 -42 10 -23 0 -39 -2 -37 -4z"/>
 <path d="M860 500 c0 -5 19 -10 42 -10 49 0 47 5 -4 14 -24 4 -38 3 -38 -4z"/>
 <path d="M660 480 c36 -12 60 -12 60 0 0 6 -19 10 -42 9 -37 -1 -39 -2 -18 -9z"/>
 <path d="M960 480 c0 -5 18 -10 40 -10 22 0 40 -4 40 -10 0 -5 21 -10 48 -9 l47 1 -51 13 c-94 23 -124 26 -124 15z"/>
 <path d="M755 460 c44 -11 65 -11 65 0 0 6 -21 9 -47 9 -43 -1 -45 -2 -18 -9z"/>
 <path d="M850 440 c36 -11 50 -11 50 0 0 6 -17 10 -37 9 -34 -1 -35 -2 -13 -9z"/>
 <path d="M1140 440 c0 -5 21 -9 48 -9 42 1 44 2 17 9 -44 11 -65 11 -65 0z"/>
 <path d="M80 426 c0 -11 8 -16 28 -15 15 0 21 3 12 6 -8 3 -21 10 -27 16 -9 7 -13 5 -13 -7z"/>
 <path d="M921 426 c12 -10 79 -16 79 -6 0 5 -19 10 -42 10 -23 0 -39 -2 -37 -4z"/>
 <path d="M1240 420 c0 -5 21 -9 48 -9 42 1 44 2 17 9 -44 11 -65 11 -65 0z"/>
 <path d="M140 400 c0 -5 19 -10 42 -10 49 0 47 5 -4 14 -24 4 -38 3 -38 -4z"/>
 <path d="M1021 406 c12 -10 79 -16 79 -6 0 5 -19 10 -42 10 -23 0 -39 -2 -37 -4z"/>
 <path d="M1340 400 c0 -5 21 -9 48 -9 42 1 44 2 17 9 -44 11 -65 11 -65 0z"/>
 <path d="M240 380 c0 -6 17 -10 37 -10 43 0 41 5 -4 13 -19 4 -33 2 -33 -3z"/>
 <path d="M1140 380 c36 -12 60 -12 60 0 0 6 -19 10 -42 9 -37 -1 -39 -2 -18 -9z"/>
 <path d="M1440 380 c0 -5 19 -10 42 -10 49 0 47 5 -4 14 -24 4 -38 3 -38 -4z"/>
 <path d="M320 360 c0 -5 21 -9 48 -9 42 1 44 2 17 9 -44 11 -65 11 -65 0z"/>
 <path d="M1211 366 c11 -9 69 -14 69 -6 0 6 -16 10 -37 10 -20 0 -34 -2 -32 -4z"/>
 <path d="M1540 360 c0 -5 21 -10 47 -10 55 0 54 5 -4 14 -27 4 -43 2 -43 -4z"/>
 <path d="M420 340 c0 -5 19 -10 42 -10 49 0 47 5 -4 14 -24 4 -38 3 -38 -4z"/>
 <path d="M1385 329 c95 -22 95 -22 95 -9 0 6 -18 10 -40 10 -22 0 -40 5 -40 10 0 6 -21 10 -47 9 -47 -1 -46 -1 32 -20z"/>
 <path d="M1640 340 c0 -5 19 -10 42 -10 49 0 47 5 -4 14 -24 4 -38 3 -38 -4z"/>
 <path d="M520 320 c0 -5 17 -10 38 -9 33 1 34 2 12 9 -36 11 -50 11 -50 0z"/>
 <path d="M1740 320 c0 -5 19 -10 42 -10 49 0 47 5 -4 14 -24 4 -38 3 -38 -4z"/>
 <path d="M620 300 c0 -6 17 -10 37 -10 43 0 41 5 -4 13 -19 4 -33 2 -33 -3z"/>
 <path d="M1501 306 c12 -10 79 -16 79 -6 0 5 -19 10 -42 10 -23 0 -39 -2 -37 -4z"/>
 <path d="M1840 300 c0 -5 19 -10 42 -10 49 0 47 5 -4 14 -24 4 -38 3 -38 -4z"/>
 <path d="M700 280 c0 -5 19 -10 43 -9 36 1 38 2 17 9 -36 12 -60 12 -60 0z"/>
 <path d="M1615 280 c44 -11 65 -11 65 0 0 6 -21 9 -47 9 -43 -1 -45 -2 -18 -9z"/>
 <path d="M1940 280 c0 -5 18 -10 40 -10 22 0 40 -4 40 -10 0 -5 21 -10 48 -9 l47 1 -51 13 c-94 23 -124 26 -124 15z"/>
 <path d="M800 260 c0 -5 19 -10 42 -10 49 0 47 5 -4 14 -24 4 -38 3 -38 -4z"/>
 <path d="M1715 260 c44 -11 65 -11 65 0 0 6 -21 9 -47 9 -43 -1 -45 -2 -18 -9z"/>
 <path d="M2352 241 c-21 -21 -30 -23 -78 -17 -34 4 -54 2 -54 -4 0 -6 28 -10 66 -10 66 0 99 15 92 43 -2 8 -11 4 -26 -12z"/>
 <path d="M900 240 c0 -5 17 -10 38 -9 33 1 34 2 12 9 -36 11 -50 11 -50 0z"/>
 <path d="M1810 240 c36 -11 50 -11 50 0 0 6 -17 10 -37 9 -34 -1 -35 -2 -13 -9z"/>
 <path d="M2120 240 c0 -5 21 -9 48 -9 42 1 44 2 17 9 -44 11 -65 11 -65 0z"/>
 <path d="M980 220 c0 -5 21 -9 48 -9 42 1 44 2 17 9 -44 11 -65 11 -65 0z"/>
 <path d="M1905 204 c34 -37 33 -87 -1 -121 -23 -23 -31 -25 -85 -20 -32 3 -59 1 -59 -4 0 -5 34 -9 76 -9 95 0 104 8 104 90 0 63 -13 90 -44 90 -11 0 -9 -7 9 -26z"/>
 <path d="M1080 200 c0 -5 21 -9 48 -9 42 1 44 2 17 9 -44 11 -65 11 -65 0z"/>
 <path d="M1180 180 c0 -5 19 -10 42 -10 49 0 47 5 -4 14 -24 4 -38 3 -38 -4z"/>
 <path d="M1280 160 c0 -5 17 -10 38 -9 33 1 34 2 12 9 -36 11 -50 11 -50 0z"/>
 <path d="M1360 140 c0 -5 21 -9 48 -9 42 1 44 2 17 9 -44 11 -65 11 -65 0z"/>
 <path d="M1460 120 c0 -5 21 -9 48 -9 42 1 44 2 17 9 -44 11 -65 11 -65 0z"/>
 <path d="M1560 100 c0 -5 19 -10 43 -9 36 1 38 2 17 9 -36 12 -60 12 -60 0z"/>
 <path d="M1660 80 c0 -5 19 -10 42 -10 49 0 47 5 -4 14 -24 4 -38 3 -38 -4z"/>
 </g>

</svg>