<svg xmlns="http://www.w3.org/2000/svg" width="135" height="186" style="">
    <path style="fill:#f8cf2c; stroke:none;"
          d="M44.00000071525574,12 L44.00000071525574,83 C40.01000071525573,80.729 34.779000715255734,77.632 30.000000715255737,78.437 C26.44500071525573,79.035 23.223000715255736,81.496 20.000000715255737,83 L20.000000715255737,18 C13.227000715255741,18.291600000000003 6.745000715255742,20.463299999999997 7.152557373046875e-7,21 L7.152557373046875e-7,165 C22.72400071525574,169.407 45.359000715255746,174.396 68.00000071525574,179.211 C79.17900071525574,181.588 90.59200071525575,185.092 102.00000071525574,186 L102.00000071525574,0 C82.72900071525575,3.7372999999999976 63.458000715255736,9.487099999999998 44.00000071525574,12 M107.00000071525574,11 L107.00000071525574,27 L120.00000071525574,27 L120.00000071525574,160 L107.00000071525574,160 L107.00000071525574,175 L135.00000071525574,175 L135.00000071525574,11 L107.00000071525574,11 z"
          id="svg_1" class=""/>
    <path style="fill:#252827; stroke:none;"
          d="M85.14800071525573,103.047 C78.95300071525574,106.41399999999999 84.91000071525573,115.576 90.56600071525574,111.816 C95.63000071525573,108.451 90.53300071525572,100.12 85.14800071525573,103.047 z"
          id="svg_2" class=""/>
</svg>
