<?xml version="1.0" standalone="yes"?>
<svg xmlns="http://www.w3.org/2000/svg" width="325" height="260">
<path style="fill:#f8cf2c; stroke:none;" d="M139 50L139 121C135.01 118.729 129.779 115.632 125 116.437C121.445 117.035 118.223 119.496 115 121L115 56C108.227 56.2916 101.745 58.4633 95 59L95 203C117.724 207.407 140.359 212.396 163 217.211C174.179 219.588 185.592 223.092 197 224L197 38C177.729 41.7373 158.458 47.4871 139 50M202 49L202 65L215 65L215 198L202 198L202 213L230 213L230 49L202 49z"/>
<path style="fill:#252827; stroke:none;" d="M180.148 141.047C173.953 144.414 179.91 153.576 185.566 149.816C190.63 146.451 185.533 138.12 180.148 141.047z"/>
</svg>
